<svg version="1.1" width="375" height="360" viewBox="0 0 375 360" xmlns="http://www.w3.org/2000/svg" xmlns:xlink="http://www.w3.org/1999/xlink"><defs xmlns="http://www.w3.org/2000/svg"><style xmlns="http://www.w3.org/1999/xhtml" type="text/css">@import url(https://fonts.googleapis.com/css?family=Black+Ops+One:regular);</style><style xmlns="http://www.w3.org/1999/xhtml" type="text/css">@import url(https://fonts.googleapis.com/css?family=Cutive:regular);</style><style xmlns="http://www.w3.org/1999/xhtml" type="text/css">@import url(https://fonts.googleapis.com/css?family=Francois+One:regular);</style><style xmlns="http://www.w3.org/1999/xhtml" type="text/css">@import url(https://fonts.googleapis.com/css?family=Montserrat:regular,700);</style></defs><g xmlns="http://www.w3.org/2000/svg" id="obj_2"><g id="obj_14" transform="matrix(1,0,0,1,0,80.547)" opacity="1" display="inline"><path d="M 0 94.7 C 0 94.7 62.0294 134.3748 176.6732 149.6654 C 282.4705 163.7735 366.5261 143.2962 366.5261 143.2962 L 161.7645 0 L 0 94.7 Z " fill-opacity="1" fill="url(#obj_14_grad_pat_fill)" stroke="none" stroke-width="1" stroke-linecap="square" stroke-linejoin="miter"/><defs><linearGradient x1="0.5" y1="0" x2="0.5" y2="1" id="obj_14_grad_pat_fill"><stop offset="0" stop-color="#BFD3DF"/><stop offset="1" stop-color="#70ACCD"/></linearGradient></defs></g><g id="obj_15" transform="matrix(1,0,0,1,26.098,10.21)" opacity="1" display="inline"><path d="M 0 160.9113 C 0 72.0434 72.0434 0 160.9113 0 C 249.7793 0 321.8227 72.0434 321.8227 160.9113 C 321.8227 249.7793 249.7793 321.8227 160.9113 321.8227 C 72.0434 321.8227 0 249.7793 0 160.9113 Z " fill-opacity="1" fill="url(#obj_15_grad_pat_fill)" stroke="none" stroke-width="1" stroke-linecap="square" stroke-linejoin="miter"/><defs><linearGradient x1="0.5" y1="0" x2="0.5" y2="1" id="obj_15_grad_pat_fill"><stop offset="0" stop-color="#51ABDB"/><stop offset="1" stop-color="#4593BC"/></linearGradient></defs></g><g id="obj_16" transform="matrix(1,0,0,1,0,0)" opacity="1" display="inline"><path d="M 344.964 71.1527 C 363.465 100.1692 374.2199 134.5967 374.2199 171.5614 C 374.2199 189.8679 371.548 207.5532 366.6383 224.273 C 306.3378 211.6396 246.5311 195.8104 186.5673 181.0814 C 128.1603 166.7341 59.1256 157.0195 0.1048 175.6778 C 0.0748 174.3007 0 172.946 0 171.5614 C 0.015 94.788 46.2676 28.8443 112.4059 0 C 144.1616 17.835 180.5201 37.294 211.662 47.5325 C 249.465 59.9488 298.0302 66.1832 344.964 71.1527 Z M 246.5162 224.4376 C 175.2512 206.4605 77.6715 174.5851 2.6419 202.7333 C 17.4907 291.2196 94.4213 358.6601 187.1137 358.6601 C 262.2481 358.6601 327.0018 314.3459 356.7741 250.4529 C 319.8843 242.6393 283.1665 233.6882 246.5162 224.4376 Z " fill-opacity="1" fill="url(#obj_16_grad_pat_fill)" stroke="none" stroke-width="1" stroke-linecap="square" stroke-linejoin="miter"/><defs><linearGradient x1="0.5" y1="0" x2="0.5" y2="1" id="obj_16_grad_pat_fill"><stop offset="0" stop-color="#D4EAF6"/><stop offset="1" stop-color="#7DC0E4"/></linearGradient></defs></g></g></svg>