<svg version="1.1" width="233" height="111" viewBox="0 0 233 111" xmlns="http://www.w3.org/2000/svg" xmlns:xlink="http://www.w3.org/1999/xlink"><defs xmlns="http://www.w3.org/2000/svg"><style xmlns="http://www.w3.org/1999/xhtml" type="text/css">@import url(https://fonts.googleapis.com/css?family=Black+Ops+One:regular);</style><style xmlns="http://www.w3.org/1999/xhtml" type="text/css">@import url(https://fonts.googleapis.com/css?family=Cutive:regular);</style><style xmlns="http://www.w3.org/1999/xhtml" type="text/css">@import url(https://fonts.googleapis.com/css?family=Francois+One:regular);</style><style xmlns="http://www.w3.org/1999/xhtml" type="text/css">@import url(https://fonts.googleapis.com/css?family=Montserrat:regular,700);</style></defs><g xmlns="http://www.w3.org/2000/svg" id="obj_2"><g id="obj_17" transform="matrix(1,0,0,1,43.653,0)" opacity="1" display="inline"><path d="M 15.124 25.92 L 9.549 31.732 L 9.549 42.23 L 0 42.23 L 0 0.712 L 9.549 0.712 L 9.549 20.107 L 27.936 0.712 L 38.612 0.712 L 21.411 19.217 L 39.62 42.23 L 28.41 42.23 L 15.124 25.92 Z M 43.891 0.712 L 53.499 0.712 L 53.499 42.23 L 43.891 42.23 L 43.891 0.712 Z M 83.214 42.942 C 78.983 42.942 75.157 42.023 71.737 40.184 C 68.317 38.345 65.628 35.795 63.671 32.533 C 61.714 29.271 60.735 25.584 60.735 21.471 C 60.735 17.359 61.714 13.672 63.671 10.41 C 65.628 7.147 68.317 4.597 71.737 2.758 C 75.157 0.92 79.003 0 83.273 0 C 86.871 0 90.124 0.633 93.03 1.898 C 95.936 3.164 98.378 4.983 100.355 7.355 L 94.187 13.049 C 91.379 9.807 87.9 8.185 83.748 8.185 C 81.177 8.185 78.884 8.749 76.868 9.876 C 74.851 11.003 73.279 12.574 72.153 14.591 C 71.026 16.608 70.462 18.901 70.462 21.471 C 70.462 24.042 71.026 26.335 72.153 28.351 C 73.279 30.368 74.851 31.94 76.868 33.067 C 78.884 34.194 81.177 34.757 83.748 34.757 C 87.9 34.757 91.379 33.116 94.187 29.834 L 100.355 35.528 C 98.378 37.94 95.927 39.778 93.001 41.044 C 90.074 42.31 86.812 42.942 83.214 42.942 Z M 121.945 25.92 L 116.369 31.732 L 116.369 42.23 L 106.82 42.23 L 106.82 0.712 L 116.369 0.712 L 116.369 20.107 L 134.756 0.712 L 145.432 0.712 L 128.232 19.217 L 146.44 42.23 L 135.23 42.23 L 121.945 25.92 Z " fill-opacity="1" fill="url(#obj_17_grad_pat_fill)" stroke="none" stroke-width="1" stroke-linecap="square" stroke-linejoin="miter"/><defs><radialGradient spreadMethod="pad" cx="0.5" cy="0" r="1" gradientTransform="translate(0,0) scale(1,0.6)" id="obj_17_grad_pat_fill"><stop offset="0" stop-color="#4f4f4f" stop-opacity="0.9921875"/><stop offset="1" stop-color="#212121" stop-opacity="0.98828125"/></radialGradient></defs></g><g id="obj_18" transform="matrix(1,0,0,1,0,49.585)" opacity="1" display="inline"><path d="M 18.909 12.156 L 0 12.156 L 0 1.013 L 51.493 1.013 L 51.493 12.156 L 32.584 12.156 L 32.584 60.104 L 18.909 60.104 L 18.909 12.156 Z M 97.753 47.441 L 70.318 47.441 L 65.084 60.104 L 51.071 60.104 L 77.409 1.013 L 90.915 1.013 L 117.337 60.104 L 102.987 60.104 L 97.753 47.441 Z M 93.448 37.058 L 84.078 14.435 L 74.708 37.058 L 93.448 37.058 Z M 142.915 61.117 C 138.244 61.117 133.728 60.484 129.367 59.217 C 125.005 57.951 121.502 56.305 118.857 54.279 L 123.5 43.98 C 126.032 45.838 129.043 47.329 132.532 48.454 C 136.021 49.58 139.511 50.143 143 50.143 C 146.883 50.143 149.753 49.566 151.61 48.412 C 153.467 47.259 154.396 45.725 154.396 43.812 C 154.396 42.405 153.847 41.237 152.75 40.308 C 151.652 39.38 150.245 38.634 148.529 38.071 C 146.812 37.509 144.491 36.89 141.565 36.214 C 137.063 35.145 133.376 34.076 130.506 33.006 C 127.636 31.937 125.174 30.221 123.12 27.857 C 121.066 25.493 120.039 22.342 120.039 18.403 C 120.039 14.97 120.967 11.86 122.824 9.075 C 124.682 6.289 127.481 4.08 131.224 2.448 C 134.966 0.816 139.539 0 144.941 0 C 148.712 0 152.398 0.45 156 1.351 C 159.601 2.251 162.753 3.545 165.454 5.234 L 161.233 15.617 C 155.775 12.522 150.316 10.974 144.857 10.974 C 141.03 10.974 138.202 11.593 136.373 12.831 C 134.544 14.069 133.63 15.701 133.63 17.727 C 133.63 19.753 134.685 21.259 136.795 22.243 C 138.906 23.228 142.127 24.199 146.461 25.156 C 150.963 26.225 154.649 27.294 157.519 28.364 C 160.389 29.433 162.851 31.121 164.906 33.429 C 166.96 35.736 167.987 38.859 167.987 42.799 C 167.987 46.175 167.044 49.256 165.159 52.042 C 163.273 54.828 160.446 57.037 156.675 58.669 C 152.904 60.301 148.318 61.117 142.915 61.117 Z M 198.883 36.89 L 190.948 45.162 L 190.948 60.104 L 177.357 60.104 L 177.357 1.013 L 190.948 1.013 L 190.948 28.617 L 217.116 1.013 L 232.311 1.013 L 207.831 27.351 L 233.746 60.104 L 217.792 60.104 L 198.883 36.89 Z " fill-opacity="1" fill="#4593bc" stroke="none" stroke-width="1" stroke-linecap="square" stroke-linejoin="miter"/><defs/></g></g></svg>